<svg width="3330" height="552" viewBox="0 0 3330 552" fill="none" xmlns="http://www.w3.org/2000/svg">
<g clip-path="url(#clip0_1402_1270)">
<path d="M638.079 252.74V505.208H505.718V31.1432H519.821C547.636 31.1432 575.487 31.605 603.302 30.8945C613.7 30.8945 614.656 30.8945 617.48 30.8945L626.428 42.0845C626.428 42.0845 744.615 197.075 803.869 274.445C807.03 278.566 810.405 282.509 814.242 287.198V32.3155H945.644V506.309C919.072 506.309 893.075 506.842 867.066 506.842C850.767 506.842 855.366 506.842 835.135 506.842C829.277 500.984 809.962 475.175 803.869 466.919C751.258 395.481 704.722 338.601 650.69 268.158C647.174 263.575 643.373 259.206 638.044 252.74H638.079Z" fill="#11132F"/>
<path d="M0.5 32.9512C2.34724 32.2763 3.80371 31.3171 5.26018 31.3171C80.0022 31.4947 154.78 30.2514 229.451 32.4894C284.122 34.1235 334.317 51.7433 376.022 88.688C416.59 124.674 437.726 171.139 444.618 223.927C451.154 274.193 447.673 323.926 427.815 371.351C395.737 447.975 335.986 489.005 255.525 502.22C238.935 504.956 221.92 506.021 205.046 506.128C140.144 506.59 75.2065 506.341 10.269 506.341C7.60475 506.341 4.90495 506.341 0.5 506.341V32.9512ZM132.293 391.919C161.316 391.919 189.629 393.411 217.692 391.564C260.427 388.722 289.486 365.489 304.903 325.88C316.839 295.223 318.509 263.358 312.257 231.28C302.452 180.979 273.607 151.103 223.412 144.993C193.536 141.334 162.844 144.318 132.258 144.318V391.919H132.293Z" fill="#11132F"/>
<path d="M996.372 436.36C1021.17 407.622 1044.97 380.055 1069.09 352.134C1075.06 357.036 1080.35 361.618 1085.89 365.881C1132.39 401.512 1184.83 411.742 1241.74 401.05C1250.05 399.487 1258.43 395.579 1265.5 390.819C1287.45 376.041 1286.64 349.896 1264.04 336.077C1244.93 324.39 1223.16 321.796 1201.42 319.594C1168.31 316.29 1135.63 311.246 1103.9 300.553C1010.08 268.901 1001.2 182.756 1017.47 124.426C1027.24 89.4354 1052.18 66.0252 1083.41 49.0804C1110.58 34.338 1140.07 26.2741 1170.58 23.3967C1216.44 19.0983 1262.09 20.7324 1306.42 35.3682C1334.49 44.6399 1360.17 58.1745 1383.94 77.9612C1362.09 106.167 1340.85 133.591 1320.7 159.595C1299.11 151.14 1279.14 141.407 1258.04 135.581C1232.75 128.583 1206.39 127.162 1180.35 133.165C1174.06 134.622 1167.81 136.824 1161.98 139.595C1150.76 144.888 1143.94 153.875 1144.15 166.557C1144.36 179.559 1150.3 190.465 1162.59 194.905C1175.77 199.666 1189.66 203.147 1203.55 204.994C1237.01 209.506 1270.94 212.383 1302.52 225.03C1322.05 232.845 1341.52 242.152 1358.79 254.017C1431.11 303.537 1431.47 423.217 1359.92 475.65C1327.42 499.486 1290.72 512.239 1251.26 516.751C1199.5 522.648 1147.85 522.506 1097.65 505.667C1057.94 492.346 1025.75 467.977 996.444 436.289L996.372 436.36Z" fill="#11132F"/>
<path d="M1847.88 109.221C1824.29 121.548 1801.3 133.591 1777.36 146.095C1755.98 116.823 1725.99 101.335 1691.25 95.7222C1661.98 90.962 1632.39 91.8501 1604.75 104.497C1584.4 113.804 1570.08 128.511 1568.66 152.631C1567.56 171.565 1575.73 185.171 1591.78 194.23C1610.01 204.531 1630.22 208.439 1650.61 211.991C1685.32 218.031 1719.99 224.354 1754.48 231.565C1765.46 233.874 1776.01 238.883 1786.38 243.43C1844.04 268.687 1869.83 323.749 1861.23 388.047C1853.49 446.129 1819.1 482.718 1766.42 501.83C1697.75 526.768 1627.7 526.483 1558.68 502.256C1513.13 486.27 1481.98 453.908 1462.34 410.25C1461.27 407.905 1460.88 405.241 1459.74 401.227C1483.97 388.58 1507.84 376.076 1532.92 363.003C1534.2 365.134 1535.16 366.413 1535.83 367.834C1558 413.163 1597.61 431.848 1644.89 436.821C1669.72 439.415 1695.3 439.663 1719.17 430.463C1732.07 425.489 1744.89 418.633 1755.62 409.965C1779.46 390.676 1782.01 340.907 1746.14 320.552C1725.42 308.794 1703.01 303.11 1679.74 299.984C1639.39 294.549 1598.96 289.717 1560.84 273.98C1517.47 256.076 1487.56 225.881 1481.52 178.528C1474.48 123.537 1486.35 77.3209 1546.24 42.4721C1574.27 26.1667 1605.18 18.6356 1637.61 15.474C1675.62 11.744 1712.71 15.0122 1748.87 26.2022C1792.78 39.7723 1826.95 65.8467 1847.84 109.328L1847.88 109.221Z" fill="#1EAE5A"/>
<path d="M3296.25 368.584H3036.07C3037.35 387.873 3045.7 402.331 3058.67 414.267C3080.94 434.729 3108.76 440.661 3137.46 439.382C3167.58 437.997 3196.64 430.537 3218.77 411.39C3236.25 428.938 3253.37 446.132 3270.5 463.325L3271.92 464.712C3265.99 469.863 3263.34 472.149 3256.82 477.073C3185.63 523.929 3110.64 530.252 3034.16 492.952C2981.83 467.446 2957.32 420.697 2950.99 364.676C2946.7 326.559 2949.4 288.655 2967.12 253.38C2994.51 198.851 3039.66 170.361 3099.55 162.581C3128.68 158.78 3157.03 160.947 3185.1 168.833C3245.52 185.778 3279.13 227.483 3290.42 287.128C3295.33 312.953 3295.18 338.818 3296.25 368.619V368.584ZM3212.17 299.206C3211.42 272.137 3194.79 250.751 3166.98 241.337C3141.47 232.705 3115.58 232.386 3090.28 241.693C3063.89 251.426 3045.56 269.401 3037.32 299.206H3212.17Z" fill="#1EAE5A"/>
<path d="M1975.3 368.652C1977.75 392.951 1990.08 409.86 2008.62 422.329C2029.69 436.503 2054.02 440.943 2078.71 439.345C2108.3 437.426 2136.72 430.144 2158.28 411.458C2175.83 429.114 2192.92 446.272 2211.04 464.46C2202.79 475.082 2188.19 484.389 2172.78 491.991C2116.51 519.735 2057.96 523.998 1998.64 504.282C1948.48 487.586 1914.38 453.128 1898.92 402.329C1883.04 350.145 1883.86 298.244 1909.3 248.937C1936.37 196.469 1981.45 170.003 2039.31 162.508C2068.48 158.707 2096.79 161.016 2124.86 168.831C2183.86 185.314 2216.68 226.024 2229.86 283.964C2236.04 311.139 2235.58 338.883 2232.95 368.652H1975.3ZM2152.49 299.203C2150.79 276.113 2140.59 258.529 2121.09 248.369C2082.97 228.511 2044.57 229.648 2008.3 253.094C1992.17 263.502 1981.05 278.813 1977.68 299.239H2152.49V299.203Z" fill="#1EAE5A"/>
<path d="M2600.27 506.875H2517.71C2517.71 500.694 2517.71 495.401 2517.71 490.108C2517.71 440.624 2518.07 391.103 2517.5 341.619C2517.32 327.658 2515.72 313.413 2512.53 299.807C2504.18 264.284 2480.2 245.172 2444.46 242.401C2412.77 239.95 2387.13 252.632 2369.65 279.665C2359.77 294.976 2354.3 311.814 2354.34 330.287C2354.41 382.507 2354.3 434.727 2354.23 486.911C2354.23 492.844 2354.23 498.776 2354.23 507.55C2326.45 507.87 2299.63 507.799 2271.71 507.55V170.43H2344.89C2346.88 183.822 2348.9 197.428 2351.32 213.627C2358.78 207.446 2364.46 202.685 2370.22 197.996C2428.41 150.714 2509.61 155.084 2559.06 208.369C2579.99 230.927 2591.64 258.28 2596.57 288.227C2599.2 304.177 2599.99 320.589 2600.13 336.823C2600.55 387.942 2600.27 439.061 2600.27 490.215V506.946V506.875Z" fill="#1EAE5A"/>
<path d="M2911.96 206.593C2896.79 224.675 2882.15 242.117 2866.98 260.198C2865.1 259.275 2863 258.742 2861.55 257.499C2828.72 229.826 2790.78 226.664 2750.82 235.296C2740.16 237.605 2730.32 243.218 2725.81 254.408C2720.41 267.8 2725.95 283.573 2740.98 289.648C2754.3 295.047 2769.04 297.321 2783.36 299.843C2805.78 303.786 2828.87 304.852 2850.75 310.536C2886.91 319.914 2914.9 340.162 2924.28 378.883C2937.57 433.732 2914.05 484.851 2860.23 504.211C2783.47 531.849 2709.54 525.312 2643.89 471.636C2639.28 467.835 2634.05 464.78 2628.83 461.192C2644.28 438.492 2657.32 419.345 2671.03 399.238C2697.07 422.471 2726.56 435.721 2758.92 442.187C2777.6 445.917 2796.82 447.586 2815.26 440.446C2821.73 437.959 2828.23 434.478 2833.48 430.037C2852.6 413.732 2848.65 387.764 2825.21 379.345C2813.13 375.011 2799.91 373.057 2787.02 372.063C2759.77 369.967 2733.06 365.882 2707.62 355.722C2676.82 343.395 2652.45 324.106 2645.14 290.18C2636.75 251.317 2646.06 216.717 2679.52 191.886C2704.25 173.52 2732.56 164.853 2762.97 162.899C2791.85 161.052 2820.73 161.052 2848.72 169.719C2872.31 177.037 2893.63 188.511 2911.96 206.664V206.593Z" fill="#1EAE5A"/>
</g>
<defs>
<clipPath id="clip0_1402_1270">
<rect width="3329" height="552" fill="white" transform="translate(0.5)"/>
</clipPath>
</defs>
</svg>
