<?xml version="1.0" encoding="utf-8"?>
<!-- Generator: Adobe Illustrator 27.3.1, SVG Export Plug-In . SVG Version: 6.00 Build 0)  -->
<svg version="1.1" id="Layer_1" xmlns="http://www.w3.org/2000/svg" xmlns:xlink="http://www.w3.org/1999/xlink" x="0px" y="0px"
	 viewBox="0 0 668.1 109.8" style="enable-background:new 0 0 668.1 109.8;" xml:space="preserve">
<style type="text/css">
	.st0{fill:#0CAD5A;}
	.st1{fill:#13173F;}
</style>
<g>
	<g>
		<path class="st0" d="M328.5,104.5c-7.7,0-15.3-1.5-22.7-4.4c-7.4-2.9-14-7-19.8-12.3l5.8-7.3c3-3.8,8.5-4.5,12.5-1.7
			c3.2,2.3,6.3,4.1,9.4,5.4c5.2,2.3,10.7,3.4,16.5,3.4c4,0,7.5-0.5,10.5-1.4c2.9-1,5.2-2.4,6.8-4.2c1.6-1.8,2.4-4,2.4-6.5
			c0-3.3-1.2-5.9-3.6-7.7c-2.4-1.8-6.5-3.2-12.3-4.1l-19.1-3.3c-8.2-1.5-14.4-4.4-18.7-8.7c-4.3-4.4-6.5-10-6.5-17
			c0-6,1.6-11.1,4.7-15.5c3.1-4.4,7.5-7.7,13.2-10.1c5.6-2.3,12.4-3.5,20.2-3.5c7,0,14,1.2,21.1,3.5c7.1,2.3,13.3,5.7,18.7,10
			l-5.5,7.6c-2.7,3.8-7.9,4.9-11.9,2.6c-7.9-4.7-15.8-7-23.7-7c-3.6,0-6.7,0.5-9.4,1.4c-2.7,0.9-4.7,2.2-6.1,3.8
			c-1.4,1.6-2.1,3.5-2.1,5.6c0,3.1,1.1,5.5,3.2,7c2.2,1.6,5.7,2.8,10.5,3.7l18.2,2.9c9.6,1.6,16.9,4.6,21.7,9.2
			c4.8,4.5,7.2,10.5,7.2,18c0,6.2-1.7,11.7-5,16.3c-3.4,4.6-8.1,8.2-14.2,10.7C344.1,103.2,336.8,104.5,328.5,104.5z"/>
		<path class="st0" d="M410.8,104.5c-7.2,0-13.7-1.7-19.5-5s-10.4-7.8-13.8-13.4c-3.4-5.6-5.1-11.8-5.1-18.8
			c0-6.9,1.6-13.2,4.9-18.8c3.3-5.6,7.7-10.1,13.3-13.4s11.8-5,18.6-5c6.9,0,13,1.7,18.4,5c5.4,3.4,9.6,7.9,12.7,13.7
			c3.1,5.8,4.6,12.4,4.6,19.8v5h-53.2c0.8,2.8,2.2,5.4,4.1,7.7c1.9,2.3,4.3,4.1,7,5.3c2.8,1.2,5.7,1.9,9,1.9c3.1,0,6.1-0.5,8.8-1.4
			c0.6-0.2,1.2-0.5,1.8-0.7c3.6-1.6,7.9-1,10.9,1.7l6.7,6.1c-4.4,3.6-8.9,6.2-13.6,7.9C421.8,103.7,416.6,104.5,410.8,104.5z
			 M391.4,60.1h35c-0.7-2.8-2-5.3-3.6-7.5c-1.7-2.2-3.7-3.8-6.1-5c-2.4-1.2-5-1.8-7.7-1.8c-2.9,0-5.6,0.6-8,1.7
			c-2.4,1.1-4.4,2.8-6,5C393.3,54.7,392.2,57.2,391.4,60.1z"/>
		<path class="st0" d="M450.9,103.1V41.3c0-5.5,4.5-9.9,9.9-9.9h8.9v5.9C475.3,32.4,482,30,490,30c5.5,0,10.4,1.2,14.7,3.6
			c4.3,2.4,7.6,5.8,10,10.1c2.4,4.3,3.6,9.2,3.6,14.8v34.7c0,5.5-4.5,9.9-9.9,9.9h-8.8V61.4c0-4.7-1.4-8.4-4.1-11.1
			c-2.7-2.7-6.4-4.1-10.9-4.1c-3.2,0-6.1,0.6-8.5,1.9c-2.5,1.2-4.5,3-6.2,5.3v39.8c0,5.5-4.5,9.9-9.9,9.9H450.9z"/>
		<path class="st0" d="M555.8,104.5c-6.4,0-12.5-0.8-18.1-2.5c-5.6-1.7-10.5-4.1-14.7-7.2l5.3-7.1c2.2-3,6.4-3.9,9.7-2.2
			c2.1,1.1,4.2,2.1,6.3,2.8c3.8,1.4,7.6,2.1,11.4,2.1c4.2,0,7.6-0.7,10.1-2.1c2.5-1.4,3.8-3.3,3.8-5.6c0-1.8-0.7-3.3-2.1-4.4
			c-1.4-1.1-3.7-1.9-6.8-2.3l-13.8-2.1c-7.1-1.1-12.5-3.4-16.2-7c-3.7-3.5-5.6-8.2-5.6-14c0-4.7,1.2-8.7,3.6-12.1
			c2.4-3.4,5.9-6,10.4-7.9c4.5-1.8,9.7-2.8,15.7-2.8c5.3,0,10.5,0.7,15.5,2.2c5,1.5,9.7,3.7,14.1,6.7l-5.1,6.9
			c-2.2,2.9-6.2,3.9-9.5,2.3c-2-1-4-1.7-5.9-2.3c-3.6-1.1-7.2-1.7-10.8-1.7c-3.3,0-6,0.6-8.1,1.9c-2.1,1.3-3.2,3-3.2,5.1
			c0,1.9,0.7,3.4,2.2,4.5c1.5,1.1,3.9,1.9,7.4,2.5l13.8,1.9c7.2,1,12.6,3.3,16.4,6.9c3.8,3.6,5.6,8.1,5.6,13.6
			c0,4.6-1.4,8.7-4.1,12.2c-2.8,3.5-6.5,6.3-11.2,8.4C567.3,103.5,561.9,104.5,555.8,104.5z"/>
		<path class="st0" d="M628.7,104.5c-7.2,0-13.7-1.7-19.5-5c-5.8-3.4-10.4-7.8-13.8-13.4c-3.4-5.6-5.1-11.8-5.1-18.8
			c0-6.9,1.6-13.2,4.9-18.8c3.3-5.6,7.7-10.1,13.3-13.4c5.6-3.3,11.8-5,18.6-5c6.9,0,13,1.7,18.4,5c5.4,3.4,9.6,7.9,12.7,13.7
			c3.1,5.8,4.6,12.4,4.6,19.8v5h-53.2c0.8,2.8,2.2,5.4,4.1,7.7c1.9,2.3,4.3,4.1,7,5.3c2.8,1.2,5.7,1.9,9,1.9c3.1,0,6.1-0.5,8.8-1.4
			c0.6-0.2,1.2-0.5,1.8-0.7c3.6-1.6,7.9-1,10.9,1.7l6.7,6.1c-4.4,3.6-8.9,6.2-13.6,7.9C639.7,103.7,634.4,104.5,628.7,104.5z
			 M609.2,60.1h35c-0.7-2.8-2-5.3-3.6-7.5c-1.7-2.2-3.7-3.8-6.1-5c-2.4-1.2-5-1.8-7.7-1.8c-2.9,0-5.6,0.6-8,1.7
			c-2.4,1.1-4.4,2.8-6,5C611.1,54.7,610,57.2,609.2,60.1z"/>
	</g>
	<path class="st1" d="M103.7,103.1V6.7H126l43.8,55.9V18.3c0-6.4,5.2-11.6,11.6-11.6h10.7v96.4h-20.9L126,45v46.5
		c0,6.4-5.2,11.6-11.6,11.6H103.7z"/>
	<path class="st1" d="M240.8,104.5c-7.8,0-15.5-1.4-23.1-4.3c-7.6-2.8-14.4-6.8-20.4-11.8l6.8-8.9c3.4-4.4,9.7-5.5,14.4-2.5
		c2.9,1.9,5.6,3.3,8.3,4.4c5,2.1,10.2,3.1,15.8,3.1c3.7,0,6.8-0.4,9.4-1.1c2.6-0.7,4.5-1.8,5.9-3.2c1.4-1.4,2.1-3.1,2.1-5
		c0-2.7-1-4.7-3-6.2c-2-1.5-5.5-2.6-10.3-3.4l-21.2-3.7c-7.8-1.4-13.8-4.4-18-9c-4.2-4.6-6.3-10.4-6.3-17.5c0-6.2,1.6-11.6,4.8-16.1
		c3.2-4.5,7.7-7.9,13.6-10.3c5.9-2.4,13-3.6,21.1-3.6c7.2,0,14.4,1.2,21.6,3.6c7.3,2.4,13.5,5.8,18.9,10.1l-6.5,9.1
		c-3.2,4.5-9.2,5.7-14,3c-7.2-4.1-14.4-6.1-21.6-6.1c-3.2,0-6,0.3-8.3,1c-2.9,0.9-5,2.1-6.2,3.8c-0.8,1.1-1.1,2.4-1.1,3.8
		c0.1,2.3,1,4,2.7,5.3c1.8,1.3,4.7,2.3,8.7,3l20,3.3c9.3,1.5,16.3,4.5,21.1,9.2c4.8,4.7,7.2,10.7,7.2,18.2c0,6.5-1.7,12.1-5.1,16.9
		c-3.4,4.7-8.3,8.4-14.6,10.9C257.1,103.2,249.5,104.5,240.8,104.5z"/>
	<g>
		<circle class="st0" cx="46.6" cy="54.9" r="13.8"/>
		<path class="st1" d="M91.6,36.2c-2.6-5.9-6.2-11-10.9-15.4c-4.6-4.4-10-7.9-16.2-10.3c-6.2-2.5-12.8-3.7-20-3.7H5.5v75.5
			c0,1.8,2.2,2.7,3.4,1.4l13-13c2.1-2.1,3-5.3,2-8.2c-1-3-1.4-6.2-1.1-9.6c1-11.6,10.4-20.9,22-21.8c14.7-1.1,27,11.1,25.8,25.8
			C69.7,67.7,59.7,77.7,49,78.8c-3.9,0.4-7.7-0.2-11.1-1.5c-2.9-1.1-6.2-0.3-8.4,1.9L8.9,99.7c-1.3,1.3-0.4,3.4,1.4,3.4h34.3
			c7.2,0,13.8-1.2,20-3.7c6.2-2.5,11.5-5.9,16.2-10.3s8.3-9.4,10.9-15.2c2.6-5.8,3.9-12,3.9-18.7C95.5,48.4,94.2,42.1,91.6,36.2z"/>
	</g>
</g>
</svg>
